<svg width="450" height="256" viewBox="0 0 450 256" fill="none" xmlns="http://www.w3.org/2000/svg">
    <defs>
        <linearGradient id="Gradient1">
            <stop class="stop1" offset="0%" />
            <stop class="stop2" offset="80%" />
            <stop class="stop3" offset="100%" />
        </linearGradient>
    </defs>
    <style>
        #wave {
        fill: url(#Gradient1);
        }
        .stop1 {
        stop-color: #171516;
        }
        .stop2 {
        stop-color: #171516;
        stop-opacity: 0.8;
        }
        .stop3 {
        stop-color: #171516;
        stop-opacity: 0;
        }
        <!--        fill: linear-gradient(90deg, #111 43.82%, rgba(17, 17, 17, 0.00) 107.51%);-->
    </style>
<g clip-path="url(#clip0_505_2)">
<path id="wave" d="M0 0L18.75 16C37.5 32 75 64 112.5 74.7C150 85 187.5 75 225 85.3C262.5 96 300 128 337.5 138.7C375 149 412.5 139 431.25 133.3L450 128V256H431.25C412.5 256 375 256 337.5 256C300 256 262.5 256 225 256C187.5 256 150 256 112.5 256C75 256 37.5 256 18.75 256H0V0Z" />
</g>
<defs>
<clipPath id="clip0_505_2">
<rect width="450" height="256" fill="white"/>
</clipPath>
</defs>
</svg>
